<svg width="24" height="21" viewBox="0 0 24 21" fill="none" xmlns="http://www.w3.org/2000/svg">
<path fill-rule="evenodd" clip-rule="evenodd" d="M7.22513 10.9209C7.22513 8.33592 9.36302 6.24042 12.0002 6.24042C14.6375 6.24042 16.7753 8.33592 16.7753 10.9209C16.7753 13.506 14.6375 15.6015 12.0002 15.6015C9.36302 15.6015 7.22513 13.506 7.22513 10.9209ZM12.0002 8.11262C10.418 8.11262 9.13518 9.37 9.13518 10.9209C9.13518 12.4719 10.418 13.7292 12.0002 13.7292C13.5825 13.7292 14.8653 12.4719 14.8653 10.9209C14.8653 9.37 13.5825 8.11262 12.0002 8.11262Z" fill="white"/>
<path fill-rule="evenodd" clip-rule="evenodd" d="M10.2378 1.87221C8.90694 1.87221 7.82804 2.92973 7.82804 4.23425C7.82804 5.06546 7.17707 5.75745 6.33184 5.82474L3.49277 6.05075C2.93532 6.09512 2.47688 6.49917 2.37283 7.0378C1.80141 9.99584 1.75881 13.0288 2.24691 16.0013L2.37075 16.7554C2.48769 17.4676 3.08571 18.0094 3.81923 18.0678L6.29252 18.2646C10.0912 18.5671 13.9088 18.5671 17.7074 18.2646L20.1807 18.0678C20.9143 18.0094 21.5123 17.4676 21.6293 16.7554L21.753 16.0013C22.2411 13.0288 22.1986 9.99584 21.6271 7.0378C21.5231 6.49917 21.0647 6.09512 20.5072 6.05075L17.6681 5.82474C16.8228 5.75746 16.1719 5.06546 16.1719 4.23425C16.1719 2.92973 15.093 1.87221 13.7622 1.87221H10.2378ZM5.92574 3.97869C6.06054 1.75918 7.93959 0 10.2378 0H13.7622C16.0604 0 17.9395 1.75918 18.0742 3.97869L20.6618 4.18468C22.0765 4.29729 23.2398 5.32264 23.5038 6.6895C24.1164 9.86066 24.1621 13.1122 23.6389 16.2987L23.515 17.0528C23.2583 18.6162 21.9456 19.8057 20.3353 19.9339L17.862 20.1307C13.9605 20.4413 10.0395 20.4413 6.13791 20.1307L3.66462 19.9339C2.05443 19.8057 0.741696 18.6162 0.484973 17.0528L0.361139 16.2987C-0.162124 13.1122 -0.116448 9.86066 0.496128 6.6895C0.760172 5.32264 1.92355 4.29729 3.33816 4.18468L5.92574 3.97869Z" fill="white"/>
</svg>
