<svg width="15" height="19" viewBox="0 0 15 19" fill="none" xmlns="http://www.w3.org/2000/svg">
<path fill-rule="evenodd" clip-rule="evenodd" d="M3.31165 7.71526C3.31165 5.40214 5.18681 3.52698 7.49994 3.52698C9.81301 3.52698 11.6882 5.40214 11.6882 7.71526C11.6882 10.0284 9.81301 11.9035 7.49994 11.9035C5.18681 11.9035 3.31165 10.0284 3.31165 7.71526ZM7.49994 4.84959C5.91729 4.84959 4.63426 6.13259 4.63426 7.71526C4.63426 9.2979 5.91729 10.5809 7.49994 10.5809C9.08258 10.5809 10.3656 9.2979 10.3656 7.71526C10.3656 6.13259 9.08258 4.84959 7.49994 4.84959Z" fill="black"/>
<path fill-rule="evenodd" clip-rule="evenodd" d="M0.026671 6.70729C0.339099 2.91702 3.50645 0 7.30955 0H7.69047C11.4936 0 14.6609 2.91702 14.9733 6.70729C15.1412 8.74337 14.5123 10.7651 13.219 12.3467L8.9928 17.5153C8.22128 18.4589 6.77874 18.4589 6.00722 17.5153L1.78099 12.3467C0.48777 10.7651 -0.14116 8.74337 0.026671 6.70729ZM7.30955 1.32262C4.19479 1.32262 1.60069 3.71168 1.34482 6.81595C1.20513 8.5105 1.72858 10.1931 2.80489 11.5095L7.0311 16.6781C7.27349 16.9744 7.72653 16.9744 7.96892 16.6781L12.1951 11.5095C13.2715 10.1931 13.7949 8.5105 13.6552 6.81595C13.3993 3.71168 10.8052 1.32262 7.69047 1.32262H7.30955Z" fill="black"/>
</svg>
