<svg width="15" height="15" viewBox="0 0 15 15" fill="none" xmlns="http://www.w3.org/2000/svg">
<path fill-rule="evenodd" clip-rule="evenodd" d="M3.38721 3.75463C3.38721 1.681 5.22862 0 7.50011 0C9.77159 0 11.613 1.681 11.613 3.75463C11.613 5.82825 9.77159 7.50925 7.50011 7.50925C5.22862 7.50925 3.38721 5.82825 3.38721 3.75463ZM7.50011 1.32516C6.0303 1.32516 4.83882 2.41287 4.83882 3.75463C4.83882 5.09638 6.0303 6.18409 7.50011 6.18409C8.96992 6.18409 10.1614 5.09638 10.1614 3.75463C10.1614 2.41287 8.96992 1.32516 7.50011 1.32516Z" fill="black"/>
<path fill-rule="evenodd" clip-rule="evenodd" d="M3.62903 10.1595C2.42648 10.1595 1.45161 11.0495 1.45161 12.1473V13.1971C1.45161 13.213 1.4643 13.2266 1.48158 13.2292C5.46747 13.8233 9.53255 13.8233 13.5184 13.2292C13.5357 13.2266 13.5484 13.213 13.5484 13.1971V12.1473C13.5484 11.0495 12.5735 10.1595 11.371 10.1595H11.0411C11.0156 10.1595 10.9903 10.1632 10.966 10.1704L10.1284 10.4201C8.42052 10.9292 6.57948 10.9292 4.87159 10.4201L4.034 10.1704C4.00976 10.1632 3.98441 10.1595 3.95891 10.1595H3.62903ZM0 12.1473C0 10.3176 1.62477 8.83435 3.62903 8.83435H3.95891C4.13744 8.83435 4.31486 8.86015 4.48458 8.91068L5.32218 9.16043C6.73732 9.58218 8.26268 9.58218 9.67781 9.16043L10.5154 8.91068C10.6851 8.86015 10.8625 8.83435 11.0411 8.83435H11.371C13.3753 8.83435 15 10.3176 15 12.1473V13.1971C15 13.8625 14.4717 14.4298 13.7523 14.5371C9.61152 15.1542 5.38848 15.1542 1.24768 14.5371C0.528271 14.4298 0 13.8625 0 13.1971V12.1473Z" fill="black"/>
</svg>
