<svg width="30" height="30" viewBox="0 0 30 30" fill="none" xmlns="http://www.w3.org/2000/svg">
<path d="M26.7164 20.85C26.0695 22.2867 25.7578 22.9289 24.9257 24.1969C23.7609 25.9688 22.1179 28.1813 20.0882 28.1953C18.2812 28.2117 17.8148 27.0164 15.3609 27.0375C12.9093 27.0492 12.3984 28.2188 10.589 28.2C8.55699 28.1813 7.00309 26.1891 5.83824 24.4195C2.58043 19.4578 2.2359 13.6406 4.24918 10.5469C5.67418 8.35313 7.92653 7.06407 10.0429 7.06407C12.1992 7.06407 13.5539 8.24766 15.3351 8.24766C17.0648 8.24766 18.1172 7.06172 20.6109 7.06172C22.4953 7.06172 24.4875 8.08829 25.9125 9.86016C21.2531 12.4148 22.0101 19.0688 26.7164 20.85ZM18.7172 5.08126C19.6242 3.91641 20.3132 2.27344 20.0625 0.600006C18.5836 0.700787 16.8539 1.64532 15.8437 2.86876C14.9273 3.98438 14.1679 5.63907 14.4632 7.23985C16.0781 7.29141 17.7492 6.32813 18.7172 5.08126Z" fill="black"/>
</svg>
